<mxfile host="app.diagrams.net" modified="2024-02-07T07:37:00.849Z" agent="Mozilla/5.0 (Windows NT 10.0; Win64; x64) AppleWebKit/537.36 (KHTML, like Gecko) Chrome/120.0.0.0 Safari/537.36 OPR/106.0.0.0" version="23.1.1" etag="cz6KPIOks3n7A9Z5yz4e" type="github">
  <diagram name="Page-1" id="YokaauP_Jv5k1qsGyXAG">
    <mxGraphModel>
      <root>
        <mxCell id="0" />
        <mxCell id="1" parent="0" />
      </root>
    </mxGraphModel>
  </diagram>
</mxfile>
